<svg width="24" height="24" viewBox="0 0 24 24" fill="none" xmlns="http://www.w3.org/2000/svg">
<path fill-rule="evenodd" clip-rule="evenodd" d="M12 0C18.6274 0 24 5.37259 24 12C24 17.9896 19.6118 22.954 13.875 23.8543V15.4689H16.6711L17.2032 12.0001H17.2031L17.2031 12H13.875V9.7491C13.875 8.80013 14.3399 7.87511 15.8306 7.87511H17.3438V4.92198C17.3438 4.92198 17.3438 4.92198 17.3438 4.92197V4.92189C17.3438 4.92189 15.9705 4.68752 14.6576 4.68752C11.9165 4.68752 10.125 6.34876 10.125 9.35628V12H7.07813V15.4688H7.07815V15.4689H10.125V23.8543C4.38822 22.954 0 17.9896 0 12C0 5.37259 5.37258 0 12 0Z" fill="#000000"/>
</svg>
