<svg width="32" height="32" viewBox="0 0 32 32" fill="none" xmlns="http://www.w3.org/2000/svg">
<g clip-path="url(#clip0_183_715)">
<path d="M10 28.75C10.9665 28.75 11.75 27.9665 11.75 27C11.75 26.0335 10.9665 25.25 10 25.25C9.0335 25.25 8.25 26.0335 8.25 27C8.25 27.9665 9.0335 28.75 10 28.75Z" fill="#151D20"/>
<path d="M23 28.75C23.9665 28.75 24.75 27.9665 24.75 27C24.75 26.0335 23.9665 25.25 23 25.25C22.0335 25.25 21.25 26.0335 21.25 27C21.25 27.9665 22.0335 28.75 23 28.75Z" fill="#151D20"/>
<path fill-rule="evenodd" clip-rule="evenodd" d="M0.25 4C0.25 3.58579 0.585786 3.25 1 3.25H3.10284C3.48313 3.25 3.85308 3.37388 4.15668 3.60289C4.46029 3.8319 4.68103 4.15358 4.78551 4.51924L5.85144 8.25H27.7143C27.9496 8.25 28.1713 8.36047 28.313 8.54835C28.4548 8.73624 28.5001 8.97975 28.4354 9.20604L25.1356 20.7555C24.9714 21.3301 24.6245 21.8356 24.1474 22.1955C23.6703 22.5553 23.089 22.75 22.4914 22.75H10.5086C9.911 22.75 9.32966 22.5553 8.85256 22.1955C8.37547 21.8356 8.02859 21.3301 7.86441 20.7555L4.56927 9.2225C4.56597 9.21186 4.56291 9.20113 4.56007 9.1903L3.34322 4.93132C3.3283 4.87908 3.29676 4.83313 3.25339 4.80041C3.21002 4.7677 3.15717 4.75 3.10284 4.75H1C0.585786 4.75 0.25 4.41421 0.25 4ZM6.28001 9.75L9.3067 20.3434C9.38132 20.6046 9.539 20.8344 9.75586 20.9979C9.97272 21.1615 10.237 21.25 10.5086 21.25H22.4914C22.763 21.25 23.0273 21.1615 23.2441 20.9979C23.461 20.8344 23.6187 20.6046 23.6933 20.3434L26.72 9.75H6.28001Z" fill="#151D20"/>
</g>
<defs>
<clipPath id="clip0_183_715">
<rect width="32" height="32" fill="white"/>
</clipPath>
</defs>
</svg>
